<?xml version="1.0" standalone="no"?>
<!DOCTYPE svg PUBLIC "-//W3C//DTD SVG 20010904//EN"
 "http://www.w3.org/TR/2001/REC-SVG-20010904/DTD/svg10.dtd">
<svg version="1.0" xmlns="http://www.w3.org/2000/svg"
 width="469.000000pt" height="273.000000pt" viewBox="0 0 469.000000 273.000000"
 preserveAspectRatio="xMidYMid meet">

<g transform="translate(0.000000,273.000000) scale(0.100000,-0.100000)"
fill="#000000" stroke="none">
<path d="M0 1365 l0 -1365 2345 0 2345 0 0 1365 0 1365 -2345 0 -2345 0 0
-1365z m555 305 l90 -90 -90 -90 -90 -90 -95 0 -95 0 90 90 90 90 -90 90 -90
90 95 0 95 0 90 -90z m275 -165 c61 -32 47 -112 -23 -129 -74 -19 -138 40
-107 99 23 43 79 56 130 30z m245 -10 c14 -13 25 -36 25 -50 0 -38 -42 -75
-85 -75 -44 0 -85 37 -85 75 0 65 97 99 145 50z m230 0 c14 -13 25 -36 25 -50
0 -38 -42 -75 -85 -75 -44 0 -85 37 -85 75 0 65 97 99 145 50z m3040 -630 l0
-440 -2030 0 -2030 0 -3 430 c-1 237 0 436 3 443 3 10 415 12 2032 10 l2028
-3 0 -440z"/>
<path d="M339 1251 l-29 -29 0 -356 0 -355 24 -28 24 -28 1956 0 1955 0 23 23
23 23 0 364 0 364 -23 23 -23 23 -1950 3 -1950 2 -30 -29z m1923 -181 c48 -14
60 -36 56 -107 -4 -72 -28 -92 -119 -100 l-64 -6 120 -58 120 -57 -99 -1 -99
-1 -112 60 c-105 56 -117 60 -179 60 l-66 0 0 -60 0 -60 -70 0 -71 0 3 93 3
92 248 3 247 2 0 40 0 40 -247 2 c-230 3 -248 4 -251 21 -9 47 -9 47 275 47
154 0 284 -5 305 -10z m298 -160 l0 -170 -70 0 -70 0 0 170 0 170 70 0 70 0 0
-170z m720 135 l0 -35 -135 0 -135 0 0 -135 0 -135 -70 0 -70 0 0 135 0 134
-132 3 c-119 3 -133 5 -136 21 -9 48 -14 47 343 47 l335 0 0 -35z m180 -135
l0 -170 -70 0 -70 0 0 170 0 170 70 0 70 0 0 -170z m658 138 l-3 -33 -305 0
c-286 0 -305 1 -308 18 -9 47 -12 47 313 47 l306 0 -3 -32z m-3394 -88 c48
-60 89 -110 90 -110 2 0 45 50 96 110 l92 110 62 0 61 0 84 -101 c47 -55 90
-104 96 -109 7 -6 38 26 94 100 l84 110 73 0 c41 0 74 -2 74 -5 0 -3 -61 -80
-136 -170 l-136 -165 -56 1 -57 0 -95 114 c-52 63 -97 114 -100 114 -3 0 -48
-51 -100 -114 l-95 -114 -60 0 -60 0 -70 87 c-38 48 -101 124 -138 169 l-68
83 89 0 89 0 87 -110z m3396 -45 l0 -35 -307 2 c-288 3 -308 4 -311 21 -9 47
-12 47 313 47 l305 0 0 -35z m0 -140 l0 -35 -310 0 -310 0 0 28 c0 16 3 32 7
35 3 4 143 7 310 7 l303 0 0 -35z"/>
</g>
</svg>
